<?xml version='1.0' encoding='iso-8859-1'?>
<svg version="1.1" xmlns="http://www.w3.org/2000/svg" viewBox="0 0 353.544 353.544" enable-background="new 0 0 353.544 353.544">
  <path d="m331.066,217.204l-106.042-7.708c-2.787-0.197-5.458,1.162-6.926,3.541l-33.826,54.801v-118.924l55.609-32.106c2.32-1.34 3.75-3.815 3.75-6.495v-68.542c0-2.68-1.43-5.155-3.75-6.495l-59.359-34.271c-2.32-1.34-5.18-1.34-7.5-2.66454e-15l-59.359,34.271c-2.32,1.34-3.75,3.815-3.75,6.495v68.542c0,2.68 1.43,5.155 3.75,6.495l55.609,32.106v118.924l-33.826-54.801c-1.469-2.379-4.14-3.74-6.926-3.541l-106.042,7.708c-4.131,0.3-7.237,3.893-6.937,8.024 0.301,4.131 3.893,7.24 8.024,6.937l101.504-7.379 29.573,47.911-53.082-30.923c-2.942-1.714-6.67-1.23-9.079,1.177l-61.847,61.847c-2.929,2.929-2.929,7.678 0,10.606 1.464,1.465 3.384,2.197 5.303,2.197 1.919,0 3.839-0.732 5.303-2.197l57.761-57.761 63.201,36.817-34.056,23.419c-1.833,1.26-3.012,3.27-3.218,5.484-0.206,2.215 0.582,4.407 2.15,5.984l21.869,21.985c1.466,1.474 3.391,2.211 5.317,2.211 1.913,0 3.826-0.727 5.289-2.183 2.937-2.921 2.949-7.67 0.028-10.606l-15.528-15.61 32.717-22.499 32.717,22.499-15.528,15.61c-2.921,2.937-2.909,7.685 0.028,10.606 1.463,1.456 3.376,2.183 5.289,2.183 1.926,0 3.852-0.737 5.317-2.211l21.869-21.985c1.569-1.577 2.356-3.769 2.15-5.984-0.206-2.215-1.385-4.224-3.218-5.484l-34.054-23.419 63.201-36.817 57.761,57.761c1.464,1.464 3.384,2.197 5.303,2.197s3.839-0.732 5.303-2.197c2.929-2.929 2.929-7.678 0-10.606l-61.847-61.847c-2.408-2.409-6.137-2.892-9.079-1.177l-53.082,30.923 29.573-47.911 101.504,7.379c4.132,0.303 7.724-2.806 8.024-6.937 0.302-4.131-2.804-7.724-6.935-8.024zm-206.153-171.103l51.859-29.941 51.859,29.941v59.881l-51.859,29.941-51.859-29.941v-59.881z"/>
</svg>
